<svg width="48" height="64" viewBox="0 0 48 64" fill="none" xmlns="http://www.w3.org/2000/svg">
<path d="M6.25977 59.7061L5.88574 59.6094L5.16602 59.4219C2.4853 58.7245 0.5 56.2634 0.5 53.333V6.78809L0.507812 6.47363C0.66447 3.25481 3.21426 0.677809 6.3877 0.508789L6.38867 0.509766L6.7334 0.5H41.2803C44.7106 0.500148 47.5 3.31074 47.5 6.78809V53.333C47.5 56.1735 45.6368 58.5722 43.083 59.3525L42.834 59.4229L42.1143 59.6104L41.7402 59.708V61.0908C41.7402 62.4261 40.67 63.4998 39.3604 63.5H31.6797C30.37 63.4998 29.2998 62.4261 29.2998 61.0908V59.6211H18.7002V61.0908C18.7002 62.4261 17.63 63.4998 16.3203 63.5H8.63965C7.33007 63.4998 6.25977 62.4261 6.25977 61.0908V59.7061Z" fill="#121931" stroke="#D2D1D1"/>
<path d="M12 12H8V16H12V12Z" fill="#D9D9D9"/>
<path d="M18 12H14V16H18V12Z" fill="#D9D9D9"/>
<path d="M24 12H20V16H24V12Z" fill="#D9D9D9"/>
<path d="M12 18H8V22H12V18Z" fill="#D9D9D9"/>
<path d="M18 18H14V22H18V18Z" fill="#D9D9D9"/>
<path d="M24 18H20V22H24V18Z" fill="#D9D9D9"/>
<path d="M12 24H8V28H12V24Z" fill="#D9D9D9"/>
<path d="M18 24H14V28H18V24Z" fill="#D9D9D9"/>
<path d="M24 24H20V28H24V24Z" fill="#D9D9D9"/>
</svg>
